<svg width="40" height="40" viewBox="0 0 40 40" fill="none" xmlns="http://www.w3.org/2000/svg">
<path d="M10.75 20L17.225 25.55L29.25 14.45" stroke="#0C2F75" stroke-width="2" stroke-linecap="round" stroke-linejoin="round"/>
<path d="M35.6 31.7C35.9314 31.2581 35.8418 30.6313 35.4 30.3C34.9582 29.9686 34.3314 30.0581 34 30.5L35.6 31.7ZM2.5 20C2.5 19.4477 2.05228 19 1.5 19C0.947715 19 0.5 19.4477 0.5 20H2.5ZM33.8 38.5C33.8 39.0523 34.2477 39.5 34.8 39.5C35.3523 39.5 35.8 39.0523 35.8 38.5H33.8ZM34.8 31.1H35.8C35.8 30.5477 35.3523 30.1 34.8 30.1V31.1ZM27.4 30.1C26.8477 30.1 26.4 30.5477 26.4 31.1C26.4 31.6523 26.8477 32.1 27.4 32.1V30.1ZM4.4 8.29997C4.06863 8.7418 4.15817 9.3686 4.6 9.69997C5.04183 10.0313 5.66863 9.9418 6 9.49997L4.4 8.29997ZM37.5 20C37.5 20.5523 37.9477 21 38.5 21C39.0523 21 39.5 20.5523 39.5 20H37.5ZM6.2 1.49997C6.2 0.947686 5.75228 0.499971 5.2 0.499971C4.64772 0.499971 4.2 0.947686 4.2 1.49997H6.2ZM5.2 8.89997H4.2C4.2 9.45226 4.64772 9.89997 5.2 9.89997V8.89997ZM12.6 9.89997C13.1523 9.89997 13.6 9.45226 13.6 8.89997C13.6 8.34769 13.1523 7.89997 12.6 7.89997V9.89997ZM34 30.5C29.4805 36.526 21.612 38.9839 14.466 36.6019L13.8336 38.4993C21.7962 41.1535 30.564 38.4147 35.6 31.7L34 30.5ZM14.466 36.6019C7.32003 34.2199 2.5 27.5325 2.5 20H0.5C0.5 28.3934 5.87089 35.8451 13.8336 38.4993L14.466 36.6019ZM35.8 38.5V31.1H33.8V38.5H35.8ZM34.8 30.1H27.4V32.1H34.8V30.1ZM6 9.49997C10.5195 3.47395 18.388 1.01602 25.534 3.39801L26.1664 1.50065C18.2038 -1.15358 9.43604 1.58526 4.4 8.29997L6 9.49997ZM25.534 3.39801C32.68 5.78001 37.5 12.4674 37.5 20H39.5C39.5 11.6066 34.1291 4.15487 26.1664 1.50065L25.534 3.39801ZM4.2 1.49997V8.89997H6.2V1.49997H4.2ZM5.2 9.89997H12.6V7.89997H5.2V9.89997Z" fill="#0C2F75"/>
</svg>
