<svg width="20" height="20" viewBox="0 0 20 20" fill="none" xmlns="http://www.w3.org/2000/svg">
<path fill-rule="evenodd" clip-rule="evenodd" d="M1.54594 1.62833C2.59335 0.161959 4.69876 0.0302418 5.87364 1.45912L6.17245 1.82274C7.04527 2.88522 7.91769 3.9472 8.25306 4.28258C8.57753 4.60704 8.63954 5.1107 8.40345 5.50418L6.56632 8.56607C6.68406 8.75875 6.84361 8.98867 7.04771 9.25092C7.41168 9.71858 7.87675 10.2377 8.39539 10.7564C9.26879 11.6298 10.2466 12.4545 11.0883 13.0118L14.1025 11.2033C14.4696 10.983 14.9362 11.0208 15.263 11.2974L18.1715 13.7585C19.5253 14.904 19.4386 17.0178 17.9955 18.0485C15.7702 19.6381 12.7792 20.0161 10.3288 18.5205C8.63944 17.4895 6.56942 16.034 4.71753 14.1821C3.04256 12.5071 1.81027 10.7723 0.940487 9.31413C-0.551168 6.81337 -0.0303288 3.8351 1.54594 1.62833ZM4.32881 2.72935C4.01971 2.35342 3.4841 2.35584 3.1734 2.79081C1.93706 4.52169 1.67092 6.63451 2.65813 8.28959C3.46145 9.63636 4.59632 11.2324 6.13174 12.7679C7.83609 14.4722 9.76575 15.8338 11.3707 16.8134C13.0244 17.8227 15.1458 17.6262 16.8331 16.4211C17.2151 16.1482 17.2381 15.5885 16.8797 15.2852L14.5176 13.2866L11.596 15.0396C11.2867 15.2252 10.9014 15.2298 10.5877 15.0517C9.43939 14.3996 8.09721 13.2866 6.98117 12.1706C6.41771 11.6071 5.89479 11.0259 5.46939 10.4793C5.05583 9.94792 4.68982 9.39312 4.49302 8.88865C4.38053 8.60031 4.4079 8.27612 4.56714 8.01072L6.30728 5.11049C5.8405 4.57046 5.22035 3.81509 4.64711 3.11686L4.32881 2.72935Z" fill="#231F20"/>
<path d="M14 8.00013C14 6.89556 13.1046 6.00013 12 6.00013C11.4477 6.00013 11 5.55242 11 5.00013C11 4.44785 11.4477 4.00013 12 4.00013C14.2091 4.00013 16 5.79099 16 8.00013C16 8.55242 15.5523 9.00013 15 9.00013C14.4477 9.00013 14 8.55242 14 8.00013Z" fill="#231F20"/>
<path d="M12 3.00013C14.7614 3.00013 17 5.23871 17 8.00013C17 8.55242 17.4477 9.00013 18 9.00013C18.5523 9.00013 19 8.55242 19 8.00013C19 4.13414 15.866 1.00013 12 1.00013C11.4477 1.00013 11 1.44785 11 2.00013C11 2.55242 11.4477 3.00013 12 3.00013Z" fill="#231F20"/>
</svg>
