<svg width="16" height="21" viewBox="0 0 16 21" fill="none" xmlns="http://www.w3.org/2000/svg">
<path d="M8.6967 19.1836L9.14297 19.5847L8.6967 19.1836ZM7.3033 19.1836L6.85703 19.5847L7.3033 19.1836ZM14.4 8.67132C14.4 9.34088 14.1575 10.1802 13.7193 11.13C13.2856 12.0699 12.6834 13.0694 12.0168 14.0455C10.684 15.9971 9.1282 17.8058 8.25043 18.7826L9.14297 19.5847C10.0357 18.5913 11.6316 16.7374 13.0078 14.7222C13.6957 13.7148 14.3373 12.6548 14.8089 11.6327C15.2759 10.6205 15.6 9.59531 15.6 8.67132H14.4ZM7.74957 18.7826C6.8718 17.8058 5.31599 15.9971 3.98319 14.0455C3.31665 13.0694 2.71438 12.0699 2.28072 11.13C1.84251 10.1802 1.6 9.34088 1.6 8.67132H0.4C0.4 9.59531 0.724089 10.6205 1.1911 11.6327C1.66267 12.6548 2.30425 13.7148 2.99222 14.7222C4.36844 16.7374 5.96428 18.5913 6.85703 19.5847L7.74957 18.7826ZM1.6 8.67132C1.6 5.02832 4.47897 2.1 8 2.1V0.9C3.78904 0.9 0.4 4.3931 0.4 8.67132H1.6ZM8 2.1C11.521 2.1 14.4 5.02832 14.4 8.67132H15.6C15.6 4.3931 12.211 0.9 8 0.9V2.1ZM8.25043 18.7826C8.10972 18.9391 7.89028 18.9391 7.74957 18.7826L6.85703 19.5847C7.47452 20.2718 8.52549 20.2718 9.14297 19.5847L8.25043 18.7826ZM10.4 8.67132C10.4 10.0511 9.31189 11.1447 8 11.1447V12.3447C10.0018 12.3447 11.6 10.6863 11.6 8.67132H10.4ZM8 11.1447C6.68811 11.1447 5.6 10.0511 5.6 8.67132H4.4C4.4 10.6863 5.99818 12.3447 8 12.3447V11.1447ZM5.6 8.67132C5.6 7.29153 6.68811 6.1979 8 6.1979V4.9979C5.99818 4.9979 4.4 6.6563 4.4 8.67132H5.6ZM8 6.1979C9.31189 6.1979 10.4 7.29153 10.4 8.67132H11.6C11.6 6.6563 10.0018 4.9979 8 4.9979V6.1979Z" fill="#231F20"/>
</svg>
