<svg width="28" height="26" viewBox="0 0 28 26" fill="none" xmlns="http://www.w3.org/2000/svg">
<path d="M5.87507 18C6.9106 18 7.75007 17.1605 7.75007 16.125C7.75007 15.0895 6.9106 14.25 5.87507 14.25C4.83954 14.25 4.00007 15.0895 4.00007 16.125C4.00007 17.1605 4.83954 18 5.87507 18Z" fill="#231F20"/>
<path d="M24.0001 16.125C24.0001 17.1605 23.1606 18 22.1251 18C21.0895 18 20.2501 17.1605 20.2501 16.125C20.2501 15.0895 21.0895 14.25 22.1251 14.25C23.1606 14.25 24.0001 15.0895 24.0001 16.125Z" fill="#231F20"/>
<path d="M11.5001 15.5C10.8097 15.5 10.2501 16.0596 10.2501 16.75C10.2501 17.4404 10.8097 18 11.5001 18H16.5001C17.1904 18 17.7501 17.4404 17.7501 16.75C17.7501 16.0596 17.1904 15.5 16.5001 15.5H11.5001Z" fill="#231F20"/>
<path fill-rule="evenodd" clip-rule="evenodd" d="M8.38583 0.5C6.71152 0.5 5.24008 1.60991 4.78011 3.21979L3.54815 7.53164L2.0011 6.8548C1.36862 6.5781 0.631583 6.8665 0.354875 7.49898C0.0781675 8.13145 0.366574 8.86849 0.999048 9.1452L2.79944 9.93287L1.34842 11.3839C0.64516 12.0871 0.250072 13.041 0.250072 14.0355V24.25C0.250072 24.9404 0.809716 25.5 1.50007 25.5H6.50007C7.19043 25.5 7.75007 24.9404 7.75007 24.25V21.75H20.2501V24.25C20.2501 24.9404 20.8097 25.5 21.5001 25.5H26.5001C27.1904 25.5 27.7501 24.9404 27.7501 24.25V14.0355C27.7501 13.041 27.355 12.0871 26.6517 11.3839L25.2007 9.93287L27.0011 9.1452C27.6336 8.86849 27.922 8.13145 27.6453 7.49898C27.3686 6.8665 26.6315 6.5781 25.999 6.8548L24.452 7.53164L23.22 3.2198C22.7601 1.60992 21.2886 0.5 19.6143 0.5H8.38583ZM22.3429 9.25H5.65723L7.18392 3.9066C7.33724 3.36997 7.82772 3 8.38583 3H19.6143C20.1724 3 20.6629 3.36997 20.8162 3.9066L22.3429 9.25ZM4.51784 11.75H23.4823L24.884 13.1517C25.1184 13.3861 25.2501 13.704 25.2501 14.0355V19.25H2.75007V14.0355C2.75007 13.704 2.88177 13.3861 3.11619 13.1517L4.51784 11.75ZM25.2501 21.75V23H22.7501V21.75H25.2501ZM2.75007 23V21.75H5.25007V23H2.75007Z" fill="#231F20"/>
</svg>
