<svg width="30" height="30" viewBox="0 0 30 30" fill="none" xmlns="http://www.w3.org/2000/svg">
<path d="M20.3617 10.1426C20.7856 9.59767 20.6874 8.81233 20.1425 8.38849C19.5975 7.96465 18.8122 8.06282 18.3883 8.60775L9.63834 19.8578C9.2145 20.4027 9.31267 21.188 9.8576 21.6119C10.4025 22.0357 11.1879 21.9375 11.6117 21.3926L20.3617 10.1426Z" fill="#231F20"/>
<path d="M11.875 12.5001C12.9106 12.5001 13.75 11.6607 13.75 10.6251C13.75 9.58959 12.9106 8.75012 11.875 8.75012C10.8395 8.75012 10 9.58959 10 10.6251C10 11.6607 10.8395 12.5001 11.875 12.5001Z" fill="#231F20"/>
<path d="M20 19.3751C20 20.4107 19.1606 21.2501 18.125 21.2501C17.0895 21.2501 16.25 20.4107 16.25 19.3751C16.25 18.3396 17.0895 17.5001 18.125 17.5001C19.1606 17.5001 20 18.3396 20 19.3751Z" fill="#231F20"/>
<path fill-rule="evenodd" clip-rule="evenodd" d="M26.8978 10.0718C28.0217 5.85839 24.1417 1.97839 19.9283 3.10225C17.7436 -0.671779 12.2565 -0.671779 10.0718 3.10225C5.85839 1.97839 1.97839 5.85839 3.10225 10.0718C-0.671779 12.2565 -0.671778 17.7436 3.10225 19.9283C1.97839 24.1417 5.85839 28.0217 10.0718 26.8978C12.2565 30.6719 17.7436 30.6719 19.9283 26.8978C24.1417 28.0217 28.0217 24.1417 26.8978 19.9283C30.6718 17.7436 30.6719 12.2565 26.8978 10.0718ZM12.1514 4.5086C13.3445 2.19277 16.6556 2.19277 17.8487 4.5086C18.3277 5.43828 19.4082 5.88586 20.4043 5.56716C22.8855 4.77328 25.2268 7.11458 24.4329 9.59578L24.2031 10.3139C24.0171 10.8955 24.2784 11.5264 24.8212 11.806L25.4915 12.1514C27.8073 13.3445 27.8073 16.6556 25.4915 17.8487C24.5618 18.3277 24.1142 19.4082 24.4329 20.4043C25.2268 22.8855 22.8855 25.2268 20.4043 24.4329C19.4082 24.1142 18.3277 24.5618 17.8487 25.4915C16.6556 27.8073 13.3445 27.8073 12.1514 25.4915C11.6724 24.5618 10.5919 24.1142 9.59578 24.4329C7.11458 25.2268 4.77328 22.8855 5.56716 20.4043C5.88586 19.4082 5.43828 18.3277 4.5086 17.8487C2.19277 16.6556 2.19277 13.3445 4.5086 12.1514C5.43828 11.6724 5.88586 10.5918 5.56716 9.59578C4.77328 7.11458 7.11458 4.77328 9.59578 5.56716C10.5918 5.88586 11.6724 5.43828 12.1514 4.5086Z" fill="#231F20"/>
</svg>
