<svg width="26" height="26" viewBox="0 0 26 26" fill="none" xmlns="http://www.w3.org/2000/svg">
<path d="M3.2478 10.7766C4.25826 6.32349 8.24251 3 13 3C16.6289 3 19.8082 4.93275 21.5616 7.8295L18.3817 6.80969C17.7244 6.59886 17.0205 6.96085 16.8097 7.61823C16.5989 8.2756 16.9609 8.97942 17.6183 9.19025L23.8683 11.1947C24.2485 11.3167 24.6641 11.2496 24.9867 11.0143C25.3092 10.779 25.5 10.4037 25.5 10.0044V2.99997C25.5 2.30962 24.9404 1.74997 24.25 1.74997C23.5596 1.74997 23 2.30962 23 2.99997V5.4991C20.7205 2.46493 17.0905 0.5 13 0.5C7.04958 0.5 2.07296 4.65657 0.809776 10.2234C0.657009 10.8966 1.07894 11.5662 1.75218 11.719C2.42542 11.8718 3.09503 11.4499 3.2478 10.7766Z" fill="#231F20"/>
<path d="M25.1903 15.7766C25.343 15.1034 24.9211 14.4338 24.2479 14.281C23.5746 14.1282 22.905 14.5502 22.7522 15.2234C21.7418 19.6765 17.7575 23 13 23C9.32964 23 6.11907 21.0227 4.37882 18.0706L8.94683 19.2126C9.61657 19.3801 10.2952 18.9729 10.4627 18.3031C10.6301 17.6334 10.2229 16.9547 9.55317 16.7873L2.05317 14.9123C1.67974 14.8189 1.28413 14.9028 0.980734 15.1397C0.677339 15.3766 0.5 15.74 0.5 16.125V23C0.5 23.6903 1.05964 24.25 1.75 24.25C2.44036 24.25 3 23.6903 3 23V20.5009C5.27951 23.5351 8.9095 25.5 13 25.5C18.9504 25.5 23.9271 21.3434 25.1903 15.7766Z" fill="#231F20"/>
</svg>
