<svg width="26" height="27" viewBox="0 0 26 27" fill="none" xmlns="http://www.w3.org/2000/svg">
<path fill-rule="evenodd" clip-rule="evenodd" d="M7.54678 1.10155C8.506 0.507105 9.73831 0.25 11.1252 0.25C11.5737 0.25 11.9879 0.490358 12.2105 0.879826C13.259 2.71469 14.479 3.97586 15.7403 5.27965C15.8715 5.41535 16.0033 5.5515 16.1353 5.68882C17.3573 6.95984 18.595 8.32345 19.4648 10.25H24.2502C24.9405 10.25 25.5002 10.8096 25.5002 11.5V24C25.5002 24.6904 24.9405 25.25 24.2502 25.25H18.7245L8.9876 26.8079C5.1902 27.4155 1.75016 24.4821 1.75016 20.6364V16.7407L0.710958 14.1427C-0.273882 11.6806 1.53695 9 4.19117 9H7.33973C6.95461 8.41574 6.63493 7.84444 6.38333 7.2899C5.84516 6.10374 5.58334 4.91477 5.74837 3.81457C5.92077 2.66524 6.5458 1.72188 7.54678 1.10155ZM19.8752 22.75H23.0002V12.75H19.8752V22.75ZM17.3752 11.7278C16.6945 9.98329 15.6343 8.77496 14.3331 7.42148C14.2031 7.28625 14.0705 7.14944 13.9358 7.01049C12.8178 5.85688 11.5565 4.55548 10.4363 2.77997C9.70437 2.8473 9.19562 3.02088 8.8637 3.22657C8.47796 3.46562 8.28268 3.77226 8.22071 4.18543C8.15136 4.64773 8.2411 5.33376 8.65997 6.25698C9.07443 7.17049 9.77777 8.24045 10.8159 9.42687C11.1389 9.79599 11.2161 10.3199 11.0135 10.7665C10.8108 11.2132 10.3656 11.5 9.87516 11.5H4.19117C3.30807 11.5 2.70326 12.392 3.03215 13.2142L4.16076 16.0358C4.21982 16.1834 4.25016 16.341 4.25016 16.5V20.6364C4.25016 22.9438 6.31419 24.7039 8.59263 24.3393L17.3752 22.9341V11.7278Z" fill="#231F20"/>
</svg>
