<svg width="26" height="28" viewBox="0 0 26 28" fill="none" xmlns="http://www.w3.org/2000/svg">
<path d="M20.1339 11.1339C20.622 10.6457 20.622 9.85427 20.1339 9.36612C19.6457 8.87796 18.8543 8.87796 18.3661 9.36612L11.75 15.9822L8.88388 13.1161C8.39573 12.628 7.60427 12.628 7.11612 13.1161C6.62796 13.6043 6.62796 14.3957 7.11612 14.8839L10.8661 18.6339C11.3543 19.122 12.1457 19.122 12.6339 18.6339L20.1339 11.1339Z" fill="#231F20"/>
<path fill-rule="evenodd" clip-rule="evenodd" d="M14.1859 0.577936C13.4161 0.321353 12.5839 0.321352 11.8141 0.577935L3.06415 3.4946C1.53286 4.00503 0.5 5.43805 0.5 7.05217V16.5003C0.5 20.3747 3.03748 23.0184 5.58378 24.6906C8.14519 26.3727 10.9712 27.2524 12.1368 27.5703C12.7052 27.7254 13.2948 27.7254 13.8632 27.5703C15.0288 27.2524 17.8548 26.3727 20.4162 24.6906C22.9625 23.0184 25.5 20.3747 25.5 16.5003V7.05217C25.5 5.43805 24.4671 4.00503 22.9359 3.4946L14.1859 0.577936ZM12.6047 2.94964C12.8613 2.86412 13.1387 2.86412 13.3953 2.94964L22.1453 5.86631C22.6557 6.03645 23 6.51413 23 7.05217V16.5003C23 19.1379 21.2969 21.1214 19.0439 22.6009C16.8061 24.0705 14.2742 24.8669 13.2053 25.1585C13.0676 25.196 12.9324 25.196 12.7947 25.1585C11.7258 24.8669 9.19392 24.0705 6.95608 22.6009C4.70314 21.1214 3 19.1379 3 16.5003V7.05217C3 6.51413 3.34429 6.03645 3.85472 5.86631L12.6047 2.94964Z" fill="#231F20"/>
</svg>
