<svg width="26" height="27" viewBox="0 0 26 27" fill="none" xmlns="http://www.w3.org/2000/svg">
<path fill-rule="evenodd" clip-rule="evenodd" d="M20.4999 7.75C20.4999 11.8921 17.142 15.25 12.9999 15.25C8.85774 15.25 5.49988 11.8921 5.49988 7.75C5.49988 3.60786 8.85774 0.25 12.9999 0.25C17.142 0.25 20.4999 3.60786 20.4999 7.75ZM17.9999 7.75C17.9999 10.5114 15.7613 12.75 12.9999 12.75C10.2385 12.75 7.99988 10.5114 7.99988 7.75C7.99988 4.98858 10.2385 2.75 12.9999 2.75C15.7613 2.75 17.9999 4.98858 17.9999 7.75Z" fill="#231F20"/>
<path fill-rule="evenodd" clip-rule="evenodd" d="M13 16.5C9.33106 16.5 6.68575 17.261 4.78818 18.4022C2.88304 19.5478 1.81296 21.0281 1.22204 22.3226C0.723938 23.4139 0.950644 24.5259 1.61243 25.3182C2.24327 26.0734 3.22412 26.5 4.24994 26.5H21.7499C22.7757 26.5 23.7565 26.0734 24.3874 25.3182C25.0492 24.526 25.2759 23.4139 24.7778 22.3227C24.1869 21.0281 23.1169 19.5479 21.2118 18.4022C19.3142 17.2611 16.6689 16.5 13 16.5ZM3.49632 23.3607C3.90651 22.4621 4.66 21.3965 6.07656 20.5446C7.5007 19.6882 9.67523 19 13 19C16.3247 19 18.4992 19.6882 19.9234 20.5446C21.3399 21.3965 22.0933 22.4621 22.5035 23.3608C22.552 23.4669 22.5498 23.5307 22.545 23.5633C22.5394 23.6004 22.5212 23.6527 22.4687 23.7155C22.356 23.8505 22.1048 24 21.7499 24H4.24994C3.89503 24 3.64383 23.8504 3.53113 23.7155C3.47866 23.6527 3.46041 23.6004 3.45485 23.5633C3.44999 23.5307 3.44788 23.4669 3.49632 23.3607Z" fill="#231F20"/>
</svg>
