<svg width="24" height="28" viewBox="0 0 24 28" fill="none" xmlns="http://www.w3.org/2000/svg">
<path d="M5.75 11.5C5.75 10.8096 6.30964 10.25 7 10.25H17C17.6904 10.25 18.25 10.8096 18.25 11.5C18.25 12.1904 17.6904 12.75 17 12.75H7C6.30964 12.75 5.75 12.1904 5.75 11.5Z" fill="#231F20"/>
<path d="M7 15.25C6.30964 15.25 5.75 15.8096 5.75 16.5C5.75 17.1904 6.30964 17.75 7 17.75H17C17.6904 17.75 18.25 17.1904 18.25 16.5C18.25 15.8096 17.6904 15.25 17 15.25H7Z" fill="#231F20"/>
<path fill-rule="evenodd" clip-rule="evenodd" d="M7 0.25C6.30964 0.25 5.75 0.809644 5.75 1.5V2.75H4.5C2.42893 2.75 0.75 4.42893 0.75 6.5V24C0.75 26.0711 2.42893 27.75 4.5 27.75H19.5C21.5711 27.75 23.25 26.0711 23.25 24V6.5C23.25 4.42893 21.5711 2.75 19.5 2.75H18.25V1.5C18.25 0.809644 17.6904 0.25 17 0.25H7ZM18.25 5.25V6.5C18.25 7.19036 17.6904 7.75 17 7.75H7C6.30964 7.75 5.75 7.19036 5.75 6.5V5.25H4.5C3.80964 5.25 3.25 5.80964 3.25 6.5V24C3.25 24.6904 3.80964 25.25 4.5 25.25H19.5C20.1904 25.25 20.75 24.6904 20.75 24V6.5C20.75 5.80964 20.1904 5.25 19.5 5.25H18.25ZM8.25 5.25V2.75H15.75V5.25H8.25Z" fill="#231F20"/>
</svg>
