<svg width="28" height="28" viewBox="0 0 28 28" fill="none" xmlns="http://www.w3.org/2000/svg">
<path d="M6.5 22.75C7.19036 22.75 7.75 22.1904 7.75 21.5C7.75 20.8096 7.19036 20.25 6.5 20.25C5.80964 20.25 5.25 20.8096 5.25 21.5C5.25 22.1904 5.80964 22.75 6.5 22.75Z" fill="#231F20"/>
<path fill-rule="evenodd" clip-rule="evenodd" d="M21.8661 0.616153C22.2197 0.262575 22.75 0.153732 23.2142 0.339441L26.3392 1.58944C26.8846 1.8076 27.2046 2.3761 27.108 2.95554L26.483 6.70554C26.3825 7.30827 25.861 7.75004 25.25 7.75004H24V9.00004C24 9.69039 23.4404 10.25 22.75 10.25H21.5V11.5C21.5 11.8316 21.3683 12.1495 21.1339 12.3839L16.1751 17.3427C16.3866 18.0668 16.5 18.8326 16.5 19.625C16.5 24.1123 12.8623 27.75 8.375 27.75C3.88769 27.75 0.25 24.1123 0.25 19.625C0.25 15.1377 3.88769 11.5 8.375 11.5C9.16739 11.5 9.93328 11.6134 10.6573 11.8249L21.8661 0.616153ZM19 10.9823L15.0257 14.9565C14.4845 14.1869 13.8131 13.5155 13.0435 12.9743L23.0511 2.96675L24.4766 3.53697L24.1911 5.25004H22.75C22.0596 5.25004 21.5 5.80968 21.5 6.50004V7.75004H20.25C19.5596 7.75004 19 8.30968 19 9.00004V10.9823ZM8.375 25.25C11.4816 25.25 14 22.7316 14 19.625C14 16.5184 11.4816 14 8.375 14C5.2684 14 2.75 16.5184 2.75 19.625C2.75 22.7316 5.2684 25.25 8.375 25.25Z" fill="#231F20"/>
</svg>
