<?xml version="1.0" encoding="utf-8"?><svg width="40" height="40" fill="none" xmlns="http://www.w3.org/2000/svg" viewBox="0 0 40 40"><path d="M10.75 20l6.475 5.55 12.025-11.1" stroke="#0C2F75" stroke-width="2" stroke-linecap="round" stroke-linejoin="round"/><path d="M35.6 31.7a1 1 0 10-1.6-1.2l1.6 1.2zM2.5 20a1 1 0 10-2 0h2zm31.3 18.5a1 1 0 102 0h-2zm1-7.4h1a1 1 0 00-1-1v1zm-7.4-1a1 1 0 100 2v-2zM4.4 8.3A1 1 0 106 9.5L4.4 8.3zM37.5 20a1 1 0 102 0h-2zM6.2 1.5a1 1 0 00-2 0h2zm-1 7.4h-1a1 1 0 001 1v-1zm7.4 1a1 1 0 100-2v2zM34 30.5a17.5 17.5 0 01-19.534 6.102l-.632 1.897A19.5 19.5 0 0035.6 31.7L34 30.5zm-19.534 6.102A17.5 17.5 0 012.5 20h-2a19.5 19.5 0 0013.334 18.5l.632-1.898zM35.8 38.5v-7.4h-2v7.4h2zm-1-8.4h-7.4v2h7.4v-2zM6 9.5a17.5 17.5 0 0119.534-6.102l.632-1.897A19.5 19.5 0 004.4 8.3L6 9.5zm19.534-6.102A17.5 17.5 0 0137.5 20h2A19.5 19.5 0 0026.166 1.5l-.632 1.898zM4.2 1.5v7.4h2V1.5h-2zm1 8.4h7.4v-2H5.2v2z" fill="#0C2F75"/></svg>