<?xml version="1.0" encoding="utf-8"?><svg width="20" height="20" fill="none" xmlns="http://www.w3.org/2000/svg" viewBox="0 0 20 20"><path fill-rule="evenodd" clip-rule="evenodd" d="M1.546 1.628C2.593.162 4.699.03 5.874 1.46l.298.364c.873 1.062 1.746 2.124 2.081 2.46a1 1 0 01.15 1.221L6.566 8.566c.118.193.278.423.482.685.364.468.829.987 1.347 1.505.874.874 1.852 1.698 2.693 2.256l3.014-1.809a1 1 0 011.161.094l2.909 2.461a2.72 2.72 0 01-.177 4.29c-2.225 1.59-5.216 1.968-7.666.473-1.69-1.032-3.76-2.487-5.611-4.339A25.077 25.077 0 01.94 9.314c-1.491-2.5-.97-5.479.606-7.686zM4.329 2.73c-.31-.376-.845-.373-1.156.062-1.236 1.73-1.502 3.844-.515 5.499a23.078 23.078 0 003.474 4.478c1.704 1.704 3.634 3.066 5.239 4.045 1.653 1.01 3.775.813 5.462-.392a.72.72 0 00.047-1.136l-2.362-1.998-2.922 1.753a1 1 0 01-1.008.012c-1.149-.652-2.49-1.765-3.607-2.881a18.707 18.707 0 01-1.512-1.692c-.413-.531-.78-1.086-.976-1.59a1 1 0 01.074-.878l1.74-2.9c-.467-.54-1.087-1.296-1.66-1.994l-.318-.388z" fill="#231F20"/><path d="M14 8a2 2 0 00-2-2 1 1 0 110-2 4 4 0 014 4 1 1 0 11-2 0z" fill="#231F20"/><path d="M12 3a5 5 0 015 5 1 1 0 102 0 7 7 0 00-7-7 1 1 0 100 2z" fill="#231F20"/></svg>