<?xml version="1.0" encoding="utf-8"?><svg width="16" height="21" fill="none" xmlns="http://www.w3.org/2000/svg" viewBox="0 0 16 21"><path d="M8.697 19.184l.446.4-.446-.4zm-1.394 0l-.446.4.446-.4zM14.4 8.67c0 .67-.242 1.51-.68 2.459-.434.94-1.037 1.94-1.703 2.915-1.333 1.952-2.889 3.76-3.767 4.738l.893.802c.893-.994 2.489-2.848 3.865-4.863.688-1.007 1.33-2.067 1.8-3.09.468-1.011.792-2.037.792-2.96h-1.2zM7.75 18.783c-.878-.977-2.434-2.786-3.767-4.738-.666-.976-1.269-1.975-1.702-2.915-.438-.95-.681-1.79-.681-2.459H.4c0 .924.324 1.95.791 2.962.472 1.022 1.113 2.082 1.801 3.09 1.376 2.014 2.972 3.868 3.865 4.862l.893-.802zM1.6 8.67C1.6 5.028 4.479 2.1 8 2.1V.9C3.789.9.4 4.393.4 8.671h1.2zM8 2.1c3.521 0 6.4 2.928 6.4 6.571h1.2C15.6 4.393 12.211.9 8 .9v1.2zm.25 16.683a.326.326 0 01-.5 0l-.893.802a1.525 1.525 0 002.286 0l-.893-.802zM10.4 8.67c0 1.38-1.088 2.474-2.4 2.474v1.2c2.002 0 3.6-1.659 3.6-3.674h-1.2zM8 11.145c-1.312 0-2.4-1.094-2.4-2.474H4.4c0 2.015 1.598 3.674 3.6 3.674v-1.2zM5.6 8.67c0-1.38 1.088-2.473 2.4-2.473v-1.2c-2.002 0-3.6 1.658-3.6 3.673h1.2zM8 6.198c1.312 0 2.4 1.094 2.4 2.473h1.2c0-2.015-1.598-3.673-3.6-3.673v1.2z" fill="#231F20"/></svg>